<svg xmlns="http://www.w3.org/2000/svg" version="1.1" xmlns:xlink="http://www.w3.org/1999/xlink" xmlns:svgjs="http://svgjs.dev/svgjs" width="1000" height="1000" viewBox="0 0 1000 1000"><rect width="1000" height="1000" fill="#ffffff"></rect><g transform="matrix(0.7,0,0,0.7,149.8577398100129,445.1224805915233)"><svg viewBox="0 0 379 58" data-background-color="#ffffff" preserveAspectRatio="xMidYMid meet" height="153" width="1000" xmlns="http://www.w3.org/2000/svg" xmlns:xlink="http://www.w3.org/1999/xlink"><g id="tight-bounds" transform="matrix(1,0,0,1,0.07702404006360553,0.7189193081209453)"><svg viewBox="0 0 378.211812103781 57.1963" height="57.1963" width="378.211812103781"><g><svg viewBox="0 0 378.211812103781 57.1963" height="57.1963" width="378.211812103781"><g><svg viewBox="0 0 378.211812103781 57.1963" height="57.1963" width="378.211812103781"><g><svg viewBox="0 0 378.211812103781 57.1963" height="57.1963" width="378.211812103781"><g><svg viewBox="0 0 378.211812103781 57.1963" height="57.1963" width="378.211812103781"><g><svg><g></g><g></g></svg></g><g><svg><g><svg></svg></g><g></g></svg></g><g id="text-0"><svg viewBox="0 0 378.211812103781 57.1963" height="57.1963" width="378.211812103781"><g transform="matrix(1,0,0,1,0,0)"><svg width="266.7273" viewBox="5.550000190734863 -34.79999923706055 164.83999633789062 35.349998474121094" height="57.1963" data-palette-color="#113f67"><path d="M24.25 0L15.4-15.35 8.55-15.35 8.55 0 5.55 0 5.55-34.25 13.85-34.25Q26.05-34.25 26.05-24.95L26.05-24.95Q26.05-21.25 24.1-19.05 22.15-16.85 18.4-15.9L18.4-15.9 27.8 0 24.25 0ZM8.55-17.8L14.25-17.8Q22.85-17.8 22.85-24.95L22.85-24.95Q22.85-28.45 20.7-30.13 18.55-31.8 13.75-31.8L13.75-31.8 8.55-31.8 8.55-17.8ZM35.05-34.25L52.45-34.25 52.1-31.75 38.05-31.75 38.05-19 50.2-19 50.2-16.5 38.05-16.5 38.05-2.5 52.8-2.5 52.8 0 35.05 0 35.05-34.25ZM68.44-34.8Q71.59-34.8 73.87-33.88 76.14-32.95 78.3-31L78.3-31 76.55-29.1Q74.59-30.75 72.75-31.5 70.89-32.25 68.55-32.25L68.55-32.25Q65.34-32.25 63.39-30.68 61.45-29.1 61.45-26.45L61.45-26.45Q61.45-24.65 62.17-23.48 62.89-22.3 64.59-21.38 66.3-20.45 69.44-19.5L69.44-19.5Q72.84-18.45 74.94-17.25 77.05-16.05 78.19-14.15 79.34-12.25 79.34-9.35L79.34-9.35Q79.34-6.45 77.94-4.2 76.55-1.95 73.97-0.7 71.39 0.55 68 0.55L68 0.55Q61.59 0.55 57.05-3.75L57.05-3.75 58.74-5.65Q60.84-3.85 62.99-2.93 65.14-2 67.94-2L67.94-2Q71.64-2 73.97-3.95 76.3-5.9 76.3-9.25L76.3-9.25Q76.3-11.35 75.52-12.7 74.75-14.05 73.02-15.03 71.3-16 68.14-17L68.14-17Q62.89-18.6 60.64-20.7 58.39-22.8 58.39-26.4L58.39-26.4Q58.39-28.8 59.67-30.73 60.95-32.65 63.22-33.73 65.5-34.8 68.44-34.8L68.44-34.8ZM82.79-34.25L106.29-34.25 105.94-31.6 95.89-31.6 95.89 0 92.94 0 92.94-31.6 82.79-31.6 82.79-34.25ZM112.34-34.25L115.34-34.25 115.34 0 112.34 0 112.34-34.25ZM129.44 0L126.44 0 126.44-34.25 143.54-34.25 143.19-31.75 129.44-31.75 129.44-18.4 141.29-18.4 141.29-15.9 129.44-15.9 129.44 0ZM167.19-34.25L170.39-34.25 159.54-13.4 159.54 0 156.54 0 156.54-13.35 145.59-34.25 148.94-34.25 158.14-16.05 167.19-34.25Z" opacity="1" transform="matrix(1,0,0,1,0,0)" fill="#000000" class="undefined-text-0" data-fill-palette-color="primary"></path></svg></g><g><svg xmlns="http://www.w3.org/2000/svg" data-name="Layer 1" viewBox="18 31.31999969482422 64 37.36000061035156" x="280.231" y="0" height="57.1963" width="97.980812103781" class="icon-a-0" data-fill-palette-color="accent" id="a-0"><path d="M80 39.15H36.88V33.32a2 2 0 0 0-2-2H23.45a2 2 0 0 0-2 2v5.83H20a2 2 0 0 0-2 2V51a2 2 0 0 0 2 2h5.36V66.68a2 2 0 0 0 4 0V53H72.83V66.68a2 2 0 0 0 4 0V53H80a2 2 0 0 0 2-2V41.15A2 2 0 0 0 80 39.15ZM25.45 35.32h7.43v3.83H25.45ZM78 49H22V43.15H78Z" fill="#000000" data-fill-palette-color="accent"></path></svg></g></svg></g></svg></g></svg></g></svg></g></svg></g><defs></defs></svg><rect width="378.211812103781" height="57.1963" fill="none" stroke="none" visibility="hidden"></rect></g></svg></g></svg>